<?xml version="1.0" encoding="UTF-8"?><svg xmlns="http://www.w3.org/2000/svg" xmlns:xlink="http://www.w3.org/1999/xlink" fill-opacity="1" color-rendering="auto" color-interpolation="auto" text-rendering="auto" stroke="black" stroke-linecap="square" width="1470" stroke-miterlimit="10" shape-rendering="auto" stroke-opacity="1" fill="black" stroke-dasharray="none" font-weight="normal" stroke-width="1" height="633" font-family="'Dialog'" font-style="normal" stroke-linejoin="miter" font-size="12px" stroke-dashoffset="0" image-rendering="auto">
  <!--Generated by ySVG 2.6-->
  <defs id="genericDefs"/>
  <g>
    <defs id="defs1">
      <clipPath clipPathUnits="userSpaceOnUse" id="clipPath1">
        <path d="M0 0 L1470 0 L1470 633 L0 633 L0 0 Z"/>
      </clipPath>
      <clipPath clipPathUnits="userSpaceOnUse" id="clipPath2">
        <path d="M740 259 L2210 259 L2210 892 L740 892 L740 259 Z"/>
      </clipPath>
      <clipPath clipPathUnits="userSpaceOnUse" id="clipPath3">
        <path d="M1593 356 L1593 406 L1711 406 L1711 356 Z"/>
      </clipPath>
      <clipPath clipPathUnits="userSpaceOnUse" id="clipPath4">
        <path d="M1603 466 L1603 494 L1703 494 L1703 466 Z"/>
      </clipPath>
      <clipPath clipPathUnits="userSpaceOnUse" id="clipPath5">
        <path d="M1603 550 L1603 578 L1703 578 L1703 550 Z"/>
      </clipPath>
      <clipPath clipPathUnits="userSpaceOnUse" id="clipPath6">
        <path d="M1438 350 L1438 413 L1546 413 L1546 350 Z"/>
      </clipPath>
      <clipPath clipPathUnits="userSpaceOnUse" id="clipPath7">
        <path d="M1776 443 L1776 515 L1876 515 L1876 443 Z"/>
      </clipPath>
      <clipPath clipPathUnits="userSpaceOnUse" id="clipPath8">
        <path d="M1951 390 L1951 442 L2124 442 L2124 390 Z"/>
      </clipPath>
      <clipPath clipPathUnits="userSpaceOnUse" id="clipPath9">
        <path d="M1949 513 L1949 565 L2122 565 L2122 513 Z"/>
      </clipPath>
      <clipPath clipPathUnits="userSpaceOnUse" id="clipPath10">
        <path d="M1949 453 L1949 505 L2122 505 L2122 453 Z"/>
      </clipPath>
      <clipPath clipPathUnits="userSpaceOnUse" id="clipPath11">
        <path d="M1247 348 L1247 414 L1370 414 L1370 348 Z"/>
      </clipPath>
      <clipPath clipPathUnits="userSpaceOnUse" id="clipPath12">
        <path d="M1824 620 L1824 697 L1937 697 L1937 620 Z"/>
      </clipPath>
      <clipPath clipPathUnits="userSpaceOnUse" id="clipPath13">
        <path d="M1603 638 L1603 688 L1703 688 L1703 638 Z"/>
      </clipPath>
      <clipPath clipPathUnits="userSpaceOnUse" id="clipPath14">
        <path d="M1531 747 L1531 775 L1631 775 L1631 747 Z"/>
      </clipPath>
      <clipPath clipPathUnits="userSpaceOnUse" id="clipPath15">
        <path d="M1674 748 L1674 820 L1774 820 L1774 748 Z"/>
      </clipPath>
      <clipPath clipPathUnits="userSpaceOnUse" id="clipPath16">
        <path d="M866 372 L866 407 L966 407 L966 372 Z"/>
      </clipPath>
    </defs>
    <g fill="white" text-rendering="geometricPrecision" shape-rendering="geometricPrecision" transform="translate(-740,-259)" stroke="white">
      <rect x="740" width="1470" height="633" y="259" clip-path="url(#clipPath2)" stroke="none"/>
    </g>
    <g fill="rgb(255,204,0)" text-rendering="geometricPrecision" shape-rendering="geometricPrecision" transform="matrix(1,0,0,1,-740,-259)" stroke="rgb(255,204,0)">
      <rect x="1594" width="116" height="48" y="357" clip-path="url(#clipPath2)" stroke="none"/>
      <rect x="1593" y="356" clip-path="url(#clipPath2)" fill="yellow" width="1" height="50" stroke="none"/>
      <rect x="1594" y="356" clip-path="url(#clipPath2)" fill="yellow" width="116" height="1" stroke="none"/>
      <rect x="1594" y="405" clip-path="url(#clipPath2)" fill="rgb(178,142,0)" width="117" height="1" stroke="none"/>
      <rect x="1710" y="356" clip-path="url(#clipPath2)" fill="rgb(178,142,0)" width="1" height="49" stroke="none"/>
    </g>
    <g font-size="13px" stroke-linecap="butt" transform="matrix(1,0,0,1,-740,-259)" text-rendering="geometricPrecision" font-family="sans-serif" shape-rendering="geometricPrecision" font-weight="bold" stroke-miterlimit="1.45">
      <text x="1617.6161" xml:space="preserve" y="374.9069" clip-path="url(#clipPath3)" stroke="none">CinemaHall</text>
    </g>
    <g text-rendering="geometricPrecision" shape-rendering="geometricPrecision" transform="matrix(1,0,0,1,-740,-259)">
      <line y2="382" fill="none" x1="1594" clip-path="url(#clipPath3)" x2="1711" y1="382"/>
      <text stroke-linecap="butt" x="1598.817" y="399.8278" clip-path="url(#clipPath3)" font-family="sans-serif" stroke="none" stroke-miterlimit="1.45" xml:space="preserve">+ available: Boolean</text>
      <line y2="407" fill="none" x1="1594" clip-path="url(#clipPath3)" x2="1711" y1="407"/>
      <rect x="1604" y="467" clip-path="url(#clipPath2)" fill="rgb(255,204,0)" width="98" height="26" stroke="none"/>
      <rect x="1603" y="466" clip-path="url(#clipPath2)" fill="yellow" width="1" height="28" stroke="none"/>
      <rect x="1604" y="466" clip-path="url(#clipPath2)" fill="yellow" width="98" height="1" stroke="none"/>
      <rect x="1604" y="493" clip-path="url(#clipPath2)" fill="rgb(178,142,0)" width="99" height="1" stroke="none"/>
      <rect x="1702" y="466" clip-path="url(#clipPath2)" fill="rgb(178,142,0)" width="1" height="27" stroke="none"/>
    </g>
    <g font-size="13px" stroke-linecap="butt" transform="matrix(1,0,0,1,-740,-259)" text-rendering="geometricPrecision" font-family="sans-serif" shape-rendering="geometricPrecision" font-weight="bold" stroke-miterlimit="1.45">
      <text x="1625.5665" xml:space="preserve" y="484.0698" clip-path="url(#clipPath4)" stroke="none">SeatRow</text>
    </g>
    <g fill="rgb(255,204,0)" text-rendering="geometricPrecision" shape-rendering="geometricPrecision" transform="matrix(1,0,0,1,-740,-259)" stroke="rgb(255,204,0)">
      <rect x="1604" width="98" height="26" y="551" clip-path="url(#clipPath2)" stroke="none"/>
      <rect x="1603" y="550" clip-path="url(#clipPath2)" fill="yellow" width="1" height="28" stroke="none"/>
      <rect x="1604" y="550" clip-path="url(#clipPath2)" fill="yellow" width="98" height="1" stroke="none"/>
      <rect x="1604" y="577" clip-path="url(#clipPath2)" fill="rgb(178,142,0)" width="99" height="1" stroke="none"/>
      <rect x="1702" y="550" clip-path="url(#clipPath2)" fill="rgb(178,142,0)" width="1" height="27" stroke="none"/>
    </g>
    <g font-size="13px" stroke-linecap="butt" transform="matrix(1,0,0,1,-740,-259)" text-rendering="geometricPrecision" font-family="sans-serif" shape-rendering="geometricPrecision" font-weight="bold" stroke-miterlimit="1.45">
      <text x="1639.287" xml:space="preserve" y="568.1652" clip-path="url(#clipPath5)" stroke="none">Seat</text>
    </g>
    <g fill="rgb(255,204,0)" text-rendering="geometricPrecision" shape-rendering="geometricPrecision" transform="matrix(1,0,0,1,-740,-259)" stroke="rgb(255,204,0)">
      <rect x="1439" width="106" height="61" y="351" clip-path="url(#clipPath2)" stroke="none"/>
      <rect x="1438" y="350" clip-path="url(#clipPath2)" fill="yellow" width="1" height="63" stroke="none"/>
      <rect x="1439" y="350" clip-path="url(#clipPath2)" fill="yellow" width="106" height="1" stroke="none"/>
      <rect x="1439" y="412" clip-path="url(#clipPath2)" fill="rgb(178,142,0)" width="107" height="1" stroke="none"/>
      <rect x="1545" y="350" clip-path="url(#clipPath2)" fill="rgb(178,142,0)" width="1" height="62" stroke="none"/>
    </g>
    <g font-size="13px" stroke-linecap="butt" transform="matrix(1,0,0,1,-740,-259)" text-rendering="geometricPrecision" font-family="sans-serif" shape-rendering="geometricPrecision" font-weight="bold" stroke-miterlimit="1.45">
      <text x="1442.4661" xml:space="preserve" y="368.1485" clip-path="url(#clipPath6)" stroke="none">MovieScreening</text>
    </g>
    <g text-rendering="geometricPrecision" shape-rendering="geometricPrecision" transform="matrix(1,0,0,1,-740,-259)">
      <line y2="376" fill="none" x1="1439" clip-path="url(#clipPath6)" x2="1545" y1="376"/>
      <text stroke-linecap="butt" x="1443.0544" y="393.0694" clip-path="url(#clipPath6)" font-family="sans-serif" stroke="none" stroke-miterlimit="1.45" xml:space="preserve">+ finished: Boolean</text>
      <text stroke-linecap="butt" x="1443.0544" y="407.7706" clip-path="url(#clipPath6)" font-family="sans-serif" stroke="none" stroke-miterlimit="1.45" xml:space="preserve">+ name: String</text>
      <line y2="415" fill="none" x1="1439" clip-path="url(#clipPath6)" x2="1545" y1="415"/>
      <rect x="1777" y="444" clip-path="url(#clipPath2)" fill="rgb(255,204,0)" width="98" height="70" stroke="none"/>
      <rect x="1776" y="443" clip-path="url(#clipPath2)" fill="yellow" width="1" height="72" stroke="none"/>
      <rect x="1777" y="443" clip-path="url(#clipPath2)" fill="yellow" width="98" height="1" stroke="none"/>
      <rect x="1777" y="514" clip-path="url(#clipPath2)" fill="rgb(178,142,0)" width="99" height="1" stroke="none"/>
      <rect x="1875" y="443" clip-path="url(#clipPath2)" fill="rgb(178,142,0)" width="1" height="71" stroke="none"/>
      <text stroke-linecap="butt" x="1791.2656" y="460.5774" clip-path="url(#clipPath7)" font-family="sans-serif" stroke="none" stroke-miterlimit="1.45" xml:space="preserve">&lt;&lt;abstract&gt;&gt;</text>
    </g>
    <g font-size="13px" stroke-linecap="butt" transform="matrix(1,0,0,1,-740,-259)" text-rendering="geometricPrecision" font-family="sans-serif" shape-rendering="geometricPrecision" font-weight="bold" stroke-miterlimit="1.45">
      <text x="1782.5491" xml:space="preserve" y="485.284" clip-path="url(#clipPath7)" stroke="none">PriceCategory</text>
    </g>
    <g text-rendering="geometricPrecision" shape-rendering="geometricPrecision" transform="matrix(1,0,0,1,-740,-259)">
      <line y2="493" fill="none" x1="1777" clip-path="url(#clipPath7)" x2="1875" y1="493"/>
      <text stroke-linecap="butt" x="1781.624" y="510.2049" clip-path="url(#clipPath7)" font-family="sans-serif" stroke="none" stroke-miterlimit="1.45" xml:space="preserve">+ price: Rational</text>
      <line y2="517" fill="none" x1="1777" clip-path="url(#clipPath7)" x2="1875" y1="517"/>
      <rect x="1952" y="391" clip-path="url(#clipPath2)" fill="rgb(255,204,0)" width="171" height="50" stroke="none"/>
      <rect x="1951" y="390" clip-path="url(#clipPath2)" fill="yellow" width="1" height="52" stroke="none"/>
      <rect x="1952" y="390" clip-path="url(#clipPath2)" fill="yellow" width="171" height="1" stroke="none"/>
      <rect x="1952" y="441" clip-path="url(#clipPath2)" fill="rgb(178,142,0)" width="172" height="1" stroke="none"/>
      <rect x="2123" y="390" clip-path="url(#clipPath2)" fill="rgb(178,142,0)" width="1" height="51" stroke="none"/>
      <text stroke-linecap="butt" x="1999.8903" y="407.4808" clip-path="url(#clipPath8)" font-family="sans-serif" stroke="none" stroke-miterlimit="1.45" xml:space="preserve">&lt;&lt;singleton&gt;&gt;</text>
    </g>
    <g font-size="13px" stroke-linecap="butt" transform="matrix(1,0,0,1,-740,-259)" text-rendering="geometricPrecision" font-family="sans-serif" shape-rendering="geometricPrecision" font-weight="bold" stroke-miterlimit="1.45">
      <text x="1981.569" xml:space="preserve" y="432.1873" clip-path="url(#clipPath8)" stroke="none">PriceCategoryBox</text>
    </g>
    <g fill="rgb(255,204,0)" text-rendering="geometricPrecision" shape-rendering="geometricPrecision" transform="matrix(1,0,0,1,-740,-259)" stroke="rgb(255,204,0)">
      <rect x="1950" width="171" height="50" y="514" clip-path="url(#clipPath2)" stroke="none"/>
      <rect x="1949" y="513" clip-path="url(#clipPath2)" fill="yellow" width="1" height="52" stroke="none"/>
      <rect x="1950" y="513" clip-path="url(#clipPath2)" fill="yellow" width="171" height="1" stroke="none"/>
      <rect x="1950" y="564" clip-path="url(#clipPath2)" fill="rgb(178,142,0)" width="172" height="1" stroke="none"/>
      <rect x="2121" y="513" clip-path="url(#clipPath2)" fill="rgb(178,142,0)" width="1" height="51" stroke="none"/>
    </g>
    <g text-rendering="geometricPrecision" stroke-miterlimit="1.45" shape-rendering="geometricPrecision" font-family="sans-serif" transform="matrix(1,0,0,1,-740,-259)" stroke-linecap="butt">
      <text x="1998.5908" xml:space="preserve" y="530.4299" clip-path="url(#clipPath9)" stroke="none">&lt;&lt;singleton&gt;&gt;</text>
      <text x="1975.2073" font-size="13px" y="555.1364" clip-path="url(#clipPath9)" stroke="none" font-weight="bold" xml:space="preserve">PriceCategoryStalls</text>
    </g>
    <g fill="rgb(255,204,0)" text-rendering="geometricPrecision" shape-rendering="geometricPrecision" transform="matrix(1,0,0,1,-740,-259)" stroke="rgb(255,204,0)">
      <rect x="1950" width="171" height="50" y="454" clip-path="url(#clipPath2)" stroke="none"/>
      <rect x="1949" y="453" clip-path="url(#clipPath2)" fill="yellow" width="1" height="52" stroke="none"/>
      <rect x="1950" y="453" clip-path="url(#clipPath2)" fill="yellow" width="171" height="1" stroke="none"/>
      <rect x="1950" y="504" clip-path="url(#clipPath2)" fill="rgb(178,142,0)" width="172" height="1" stroke="none"/>
      <rect x="2121" y="453" clip-path="url(#clipPath2)" fill="rgb(178,142,0)" width="1" height="51" stroke="none"/>
    </g>
    <g text-rendering="geometricPrecision" stroke-miterlimit="1.45" shape-rendering="geometricPrecision" font-family="sans-serif" transform="matrix(1,0,0,1,-740,-259)" stroke-linecap="butt">
      <text x="1998.5908" xml:space="preserve" y="470.6126" clip-path="url(#clipPath10)" stroke="none">&lt;&lt;singleton&gt;&gt;</text>
      <text x="1957.1387" font-size="13px" y="495.3192" clip-path="url(#clipPath10)" stroke="none" font-weight="bold" xml:space="preserve">PriceCategoryServiceBox</text>
    </g>
    <g fill="rgb(255,204,0)" text-rendering="geometricPrecision" shape-rendering="geometricPrecision" transform="matrix(1,0,0,1,-740,-259)" stroke="rgb(255,204,0)">
      <rect x="1248" width="121" height="64" y="349" clip-path="url(#clipPath2)" stroke="none"/>
      <rect x="1247" y="348" clip-path="url(#clipPath2)" fill="yellow" width="1" height="66" stroke="none"/>
      <rect x="1248" y="348" clip-path="url(#clipPath2)" fill="yellow" width="121" height="1" stroke="none"/>
      <rect x="1248" y="413" clip-path="url(#clipPath2)" fill="rgb(178,142,0)" width="122" height="1" stroke="none"/>
      <rect x="1369" y="348" clip-path="url(#clipPath2)" fill="rgb(178,142,0)" width="1" height="65" stroke="none"/>
    </g>
    <g font-size="13px" stroke-linecap="butt" transform="matrix(1,0,0,1,-740,-259)" text-rendering="geometricPrecision" font-family="sans-serif" shape-rendering="geometricPrecision" font-weight="bold" stroke-miterlimit="1.45">
      <text x="1290.0791" xml:space="preserve" y="366.9197" clip-path="url(#clipPath11)" stroke="none">Movie</text>
    </g>
    <g text-rendering="geometricPrecision" shape-rendering="geometricPrecision" transform="matrix(1,0,0,1,-740,-259)">
      <line y2="374" fill="none" x1="1248" clip-path="url(#clipPath11)" x2="1369" y1="374"/>
      <text stroke-linecap="butt" x="1252" y="391.8406" clip-path="url(#clipPath11)" font-family="sans-serif" stroke="none" stroke-miterlimit="1.45" xml:space="preserve">+ title: String</text>
      <text stroke-linecap="butt" x="1252" y="406.5418" clip-path="url(#clipPath11)" font-family="sans-serif" stroke="none" stroke-miterlimit="1.45" xml:space="preserve">+ description: String</text>
      <line y2="414" fill="none" x1="1248" clip-path="url(#clipPath11)" x2="1369" y1="414"/>
      <rect x="1825" y="621" clip-path="url(#clipPath2)" fill="rgb(255,204,0)" width="111" height="75" stroke="none"/>
      <rect x="1824" y="620" clip-path="url(#clipPath2)" fill="yellow" width="1" height="77" stroke="none"/>
      <rect x="1825" y="620" clip-path="url(#clipPath2)" fill="yellow" width="111" height="1" stroke="none"/>
      <rect x="1825" y="696" clip-path="url(#clipPath2)" fill="rgb(178,142,0)" width="112" height="1" stroke="none"/>
      <rect x="1936" y="620" clip-path="url(#clipPath2)" fill="rgb(178,142,0)" width="1" height="76" stroke="none"/>
    </g>
    <g font-size="13px" stroke-linecap="butt" transform="matrix(1,0,0,1,-740,-259)" text-rendering="geometricPrecision" font-family="sans-serif" shape-rendering="geometricPrecision" font-weight="bold" stroke-miterlimit="1.45">
      <text x="1850.5498" xml:space="preserve" y="638.4392" clip-path="url(#clipPath12)" stroke="none">Customer</text>
    </g>
    <g text-rendering="geometricPrecision" shape-rendering="geometricPrecision" transform="matrix(1,0,0,1,-740,-259)">
      <line y2="646" fill="none" x1="1825" clip-path="url(#clipPath12)" x2="1936" y1="646"/>
      <text stroke-linecap="butt" x="1829.0885" y="663.3601" clip-path="url(#clipPath12)" font-family="sans-serif" stroke="none" stroke-miterlimit="1.45" xml:space="preserve">+ firstName: String</text>
      <text stroke-linecap="butt" x="1829.0885" y="678.0613" clip-path="url(#clipPath12)" font-family="sans-serif" stroke="none" stroke-miterlimit="1.45" xml:space="preserve">+ lastName: String</text>
      <text stroke-linecap="butt" x="1829.0885" y="692.7625" clip-path="url(#clipPath12)" font-family="sans-serif" stroke="none" stroke-miterlimit="1.45" xml:space="preserve">+ email: String</text>
      <line y2="700" fill="none" x1="1825" clip-path="url(#clipPath12)" x2="1936" y1="700"/>
      <rect x="1604" y="639" clip-path="url(#clipPath2)" fill="rgb(255,204,0)" width="98" height="48" stroke="none"/>
      <rect x="1603" y="638" clip-path="url(#clipPath2)" fill="yellow" width="1" height="50" stroke="none"/>
      <rect x="1604" y="638" clip-path="url(#clipPath2)" fill="yellow" width="98" height="1" stroke="none"/>
      <rect x="1604" y="687" clip-path="url(#clipPath2)" fill="rgb(178,142,0)" width="99" height="1" stroke="none"/>
      <rect x="1702" y="638" clip-path="url(#clipPath2)" fill="rgb(178,142,0)" width="1" height="49" stroke="none"/>
      <text stroke-linecap="butt" x="1617.6586" y="655.1442" clip-path="url(#clipPath13)" font-family="sans-serif" stroke="none" stroke-miterlimit="1.45" xml:space="preserve">&lt;&lt;abstract&gt;&gt;</text>
    </g>
    <g font-size="13px" stroke-linecap="butt" transform="matrix(1,0,0,1,-740,-259)" text-rendering="geometricPrecision" font-family="sans-serif" shape-rendering="geometricPrecision" font-weight="bold" stroke-miterlimit="1.45">
      <text x="1611.1256" xml:space="preserve" y="679.8507" clip-path="url(#clipPath13)" stroke="none">BookingState</text>
    </g>
    <g fill="rgb(255,204,0)" text-rendering="geometricPrecision" shape-rendering="geometricPrecision" transform="matrix(1,0,0,1,-740,-259)" stroke="rgb(255,204,0)">
      <rect x="1532" width="98" height="26" y="748" clip-path="url(#clipPath2)" stroke="none"/>
      <rect x="1531" y="747" clip-path="url(#clipPath2)" fill="yellow" width="1" height="28" stroke="none"/>
      <rect x="1532" y="747" clip-path="url(#clipPath2)" fill="yellow" width="98" height="1" stroke="none"/>
      <rect x="1532" y="774" clip-path="url(#clipPath2)" fill="rgb(178,142,0)" width="99" height="1" stroke="none"/>
      <rect x="1630" y="747" clip-path="url(#clipPath2)" fill="rgb(178,142,0)" width="1" height="27" stroke="none"/>
    </g>
    <g font-size="13px" stroke-linecap="butt" transform="matrix(1,0,0,1,-740,-259)" text-rendering="geometricPrecision" font-family="sans-serif" shape-rendering="geometricPrecision" font-weight="bold" stroke-miterlimit="1.45">
      <text x="1555.8911" xml:space="preserve" y="765.849" clip-path="url(#clipPath14)" stroke="none">Booking</text>
    </g>
    <g fill="rgb(255,204,0)" text-rendering="geometricPrecision" shape-rendering="geometricPrecision" transform="matrix(1,0,0,1,-740,-259)" stroke="rgb(255,204,0)">
      <rect x="1675" width="98" height="70" y="749" clip-path="url(#clipPath2)" stroke="none"/>
      <rect x="1674" y="748" clip-path="url(#clipPath2)" fill="yellow" width="1" height="72" stroke="none"/>
      <rect x="1675" y="748" clip-path="url(#clipPath2)" fill="yellow" width="98" height="1" stroke="none"/>
      <rect x="1675" y="819" clip-path="url(#clipPath2)" fill="rgb(178,142,0)" width="99" height="1" stroke="none"/>
      <rect x="1773" y="748" clip-path="url(#clipPath2)" fill="rgb(178,142,0)" width="1" height="71" stroke="none"/>
    </g>
    <g font-size="13px" stroke-linecap="butt" transform="matrix(1,0,0,1,-740,-259)" text-rendering="geometricPrecision" font-family="sans-serif" shape-rendering="geometricPrecision" font-weight="bold" stroke-miterlimit="1.45">
      <text x="1687.526" xml:space="preserve" y="766.2522" clip-path="url(#clipPath15)" stroke="none">Reservation</text>
    </g>
    <g text-rendering="geometricPrecision" shape-rendering="geometricPrecision" transform="matrix(1,0,0,1,-740,-259)">
      <line y2="774" fill="none" x1="1675" clip-path="url(#clipPath15)" x2="1773" y1="774"/>
      <line y2="784" fill="none" x1="1675" clip-path="url(#clipPath15)" x2="1773" y1="784"/>
      <text stroke-linecap="butt" x="1679.736" y="801.1731" clip-path="url(#clipPath15)" font-family="sans-serif" stroke="none" stroke-miterlimit="1.45" xml:space="preserve">+ cancel()</text>
      <text stroke-linecap="butt" x="1679.736" y="815.8743" clip-path="url(#clipPath15)" font-family="sans-serif" stroke="none" stroke-miterlimit="1.45" xml:space="preserve">+ upgrade()</text>
      <path fill="rgb(255,204,0)" d="M1203.4351 531.2601 L1432.6143 531.2601 L1432.6143 546.2601 L1447.6143 546.2601 L1447.6143 608.7399 L1203.4351 608.7399 Z" clip-path="url(#clipPath2)" stroke="none"/>
      <path fill="white" d="M1432.6143 531.2601 L1432.6143 546.2601 L1447.6143 546.2601 Z" clip-path="url(#clipPath2)" fill-rule="evenodd" stroke="none"/>
      <path fill="none" stroke-miterlimit="1.45" d="M1203.4351 531.2601 L1432.6143 531.2601 L1432.6143 546.2601 L1447.6143 546.2601 L1447.6143 608.7399 L1203.4351 608.7399 Z" clip-path="url(#clipPath2)" stroke-linecap="butt"/>
      <path fill="none" stroke-miterlimit="1.45" d="M1432.6143 531.2601 L1432.6143 546.2601 L1447.6143 546.2601 Z" fill-rule="evenodd" clip-path="url(#clipPath2)" stroke-linecap="butt"/>
      <text stroke-linecap="butt" x="1250.1555" y="560.0127" clip-path="url(#clipPath2)" font-family="sans-serif" stroke="none" stroke-miterlimit="1.45" xml:space="preserve">Alles hat zusätzlich nochmal</text>
      <text stroke-linecap="butt" x="1212.4768" y="574.7139" clip-path="url(#clipPath2)" font-family="sans-serif" stroke="none" stroke-miterlimit="1.45" xml:space="preserve">eine numerische id (primary key in DB und</text>
      <text stroke-linecap="butt" x="1249.4846" y="589.415" clip-path="url(#clipPath2)" font-family="sans-serif" stroke="none" stroke-miterlimit="1.45" xml:space="preserve">eindeutiger identifier für API)</text>
      <path fill="rgb(255,204,0)" d="M755.6352 447.0362 L1089.3647 447.0362 L1089.3647 462.0362 L1104.3647 462.0362 L1104.3647 549.6038 L755.6352 549.6038 Z" clip-path="url(#clipPath2)" stroke="none"/>
      <path fill="white" d="M1089.3647 447.0362 L1089.3647 462.0362 L1104.3647 462.0362 Z" clip-path="url(#clipPath2)" fill-rule="evenodd" stroke="none"/>
      <path fill="none" stroke-miterlimit="1.45" d="M755.6352 447.0362 L1089.3647 447.0362 L1089.3647 462.0362 L1104.3647 462.0362 L1104.3647 549.6038 L755.6352 549.6038 Z" clip-path="url(#clipPath2)" stroke-linecap="butt"/>
      <path fill="none" stroke-miterlimit="1.45" d="M1089.3647 447.0362 L1089.3647 462.0362 L1104.3647 462.0362 Z" fill-rule="evenodd" clip-path="url(#clipPath2)" stroke-linecap="butt"/>
      <text stroke-linecap="butt" x="773.5723" y="473.6315" clip-path="url(#clipPath2)" font-family="sans-serif" stroke="none" stroke-miterlimit="1.45" xml:space="preserve">/management/{all the classes lol}/[create/update/delete/list]</text>
      <text stroke-linecap="butt" x="773.5723" y="488.3327" clip-path="url(#clipPath2)" font-family="sans-serif" stroke="none" stroke-miterlimit="1.45" xml:space="preserve">/admin/[revenue]</text>
      <text stroke-linecap="butt" x="773.5723" y="503.0339" clip-path="url(#clipPath2)" font-family="sans-serif" stroke="none" stroke-miterlimit="1.45" xml:space="preserve">/user/account/create (create new Customer)</text>
      <text stroke-linecap="butt" x="773.5723" y="517.735" clip-path="url(#clipPath2)" font-family="sans-serif" stroke="none" stroke-miterlimit="1.45" xml:space="preserve">/user/booking/[book/reserve/upgrade?/cancel/...]</text>
      <text stroke-linecap="butt" x="773.5723" y="532.4362" clip-path="url(#clipPath2)" font-family="sans-serif" stroke="none" stroke-miterlimit="1.45" xml:space="preserve">/user/info/... (stuff für booking)</text>
      <rect x="1144.3917" y="274.04" clip-path="url(#clipPath2)" fill="rgb(255,204,0)" width="5.424" height="602.416" stroke="none"/>
      <rect stroke-linecap="butt" x="1144.3917" y="274.04" clip-path="url(#clipPath2)" fill="none" width="5.424" height="602.416" stroke-miterlimit="1.45"/>
      <rect x="867" y="373" clip-path="url(#clipPath2)" fill="rgb(255,204,0)" width="98" height="33" stroke="none"/>
      <rect x="866" y="372" clip-path="url(#clipPath2)" fill="yellow" width="1" height="35" stroke="none"/>
      <rect x="867" y="372" clip-path="url(#clipPath2)" fill="yellow" width="98" height="1" stroke="none"/>
      <rect x="867" y="406" clip-path="url(#clipPath2)" fill="rgb(178,142,0)" width="99" height="1" stroke="none"/>
      <rect x="965" y="372" clip-path="url(#clipPath2)" fill="rgb(178,142,0)" width="1" height="34" stroke="none"/>
    </g>
    <g font-size="13px" stroke-linecap="butt" transform="matrix(1,0,0,1,-740,-259)" text-rendering="geometricPrecision" font-family="sans-serif" shape-rendering="geometricPrecision" font-weight="bold" stroke-miterlimit="1.45">
      <text x="905.5005" xml:space="preserve" y="390.5063" clip-path="url(#clipPath16)" stroke="none">API</text>
    </g>
    <g fill="rgb(255,204,0)" text-rendering="geometricPrecision" shape-rendering="geometricPrecision" transform="matrix(1,0,0,1,-740,-259)" stroke="rgb(255,204,0)">
      <path d="M1967.6885 645.1092 L2179.8884 645.1092 L2179.8884 660.1092 L2194.8884 660.1092 L2194.8884 673.1092 L1967.6885 673.1092 Z" stroke="none" clip-path="url(#clipPath2)"/>
      <path fill="white" d="M2179.8884 645.1092 L2179.8884 660.1092 L2194.8884 660.1092 Z" clip-path="url(#clipPath2)" fill-rule="evenodd" stroke="none"/>
    </g>
    <g text-rendering="geometricPrecision" stroke-miterlimit="1.45" shape-rendering="geometricPrecision" transform="matrix(1,0,0,1,-740,-259)" stroke-linecap="butt">
      <path fill="none" d="M1967.6885 645.1092 L2179.8884 645.1092 L2179.8884 660.1092 L2194.8884 660.1092 L2194.8884 673.1092 L1967.6885 673.1092 Z" clip-path="url(#clipPath2)"/>
      <path fill="none" d="M2179.8884 645.1092 L2179.8884 660.1092 L2194.8884 660.1092 Z" clip-path="url(#clipPath2)" fill-rule="evenodd"/>
      <text x="1987.2455" xml:space="preserve" y="663.8231" clip-path="url(#clipPath2)" font-family="sans-serif" stroke="none">Customer email adresse ist unique!</text>
      <path fill="none" d="M1653.017 406.9491 L1653.017 465.9819" clip-path="url(#clipPath2)"/>
      <text x="1596.6732" xml:space="preserve" y="441.1916" clip-path="url(#clipPath2)" font-family="sans-serif" stroke="none">seatRows</text>
      <text x="1655.7849" xml:space="preserve" y="462.5456" clip-path="url(#clipPath2)" font-family="sans-serif" stroke="none">0..*</text>
      <text x="1657.62" xml:space="preserve" y="422.257" clip-path="url(#clipPath2)" font-family="sans-serif" stroke="none">1</text>
      <path fill="none" d="M1653.017 494.0022 L1653.017 550.0973" clip-path="url(#clipPath2)"/>
      <text x="1657.2424" xml:space="preserve" y="508.2144" clip-path="url(#clipPath2)" font-family="sans-serif" stroke="none">1</text>
      <text x="1655.7325" xml:space="preserve" y="545.1566" clip-path="url(#clipPath2)" font-family="sans-serif" stroke="none">0..*</text>
      <path fill="none" d="M1593.8127 381.8963 L1546.5823 381.8963" clip-path="url(#clipPath2)"/>
      <text x="1580.1432" xml:space="preserve" y="370.3727" clip-path="url(#clipPath2)" font-family="sans-serif" stroke="none">1</text>
      <text x="1561.4713" xml:space="preserve" y="396.1203" clip-path="url(#clipPath2)" font-family="sans-serif" stroke="none">hall</text>
      <text x="1551.9741" xml:space="preserve" y="370.3988" clip-path="url(#clipPath2)" font-family="sans-serif" stroke="none">0..*</text>
      <path fill="none" d="M1776.6416 480 L1735.3091 480 L1735.3091 480 L1703.0388 480" clip-path="url(#clipPath2)"/>
      <text x="1722.3042" xml:space="preserve" y="474.2174" clip-path="url(#clipPath2)" font-family="sans-serif" stroke="none">price</text>
      <text x="1762.9502" xml:space="preserve" y="492.9185" clip-path="url(#clipPath2)" font-family="sans-serif" stroke="none">1</text>
      <path fill="none" d="M1951.0652 416.8682 L1916.624 416.8682 L1916.624 480 L1891.5898 480" clip-path="url(#clipPath2)"/>
      <path fill="white" d="M1876.5898 480 L1892.5898 486 L1892.5898 474 Z" clip-path="url(#clipPath2)" stroke="none"/>
      <path fill="none" d="M1876.5898 480 L1892.5898 486 L1892.5898 474 Z" clip-path="url(#clipPath2)"/>
      <path fill="none" d="M1949.7588 539.8173 L1916.624 539.8173 L1916.624 480 L1891.5898 480" clip-path="url(#clipPath2)"/>
      <path fill="white" d="M1876.5898 480 L1892.5898 486 L1892.5898 474 Z" clip-path="url(#clipPath2)" stroke="none"/>
      <path fill="none" d="M1876.5898 480 L1892.5898 486 L1892.5898 474 Z" clip-path="url(#clipPath2)"/>
      <path fill="none" d="M1949.7478 480 L1891.6129 480" clip-path="url(#clipPath2)"/>
      <path fill="white" d="M1876.6129 480 L1892.6129 486 L1892.6129 474 Z" clip-path="url(#clipPath2)" stroke="none"/>
      <path fill="none" d="M1876.6129 480 L1892.6129 486 L1892.6129 474 Z" clip-path="url(#clipPath2)"/>
      <path fill="none" d="M1438.0585 381.8963 L1370.0214 381.8963" clip-path="url(#clipPath2)"/>
      <text x="1413.7787" xml:space="preserve" y="371.6796" clip-path="url(#clipPath2)" font-family="sans-serif" stroke="none">0..*</text>
      <text x="1377" xml:space="preserve" y="372.8472" clip-path="url(#clipPath2)" font-family="sans-serif" stroke="none">1</text>
      <text x="1384.6998" xml:space="preserve" y="393.4666" clip-path="url(#clipPath2)" font-family="sans-serif" stroke="none">movie</text>
      <path fill="none" d="M1653.017 578.0718 L1653.017 638.0923" clip-path="url(#clipPath2)"/>
      <text x="1632.0558" xml:space="preserve" y="628.443" clip-path="url(#clipPath2)" font-family="sans-serif" stroke="none">0..*</text>
      <text x="1657.0747" xml:space="preserve" y="612.8014" clip-path="url(#clipPath2)" font-family="sans-serif" stroke="none">bookingState</text>
      <text x="1642.9818" xml:space="preserve" y="591.4655" clip-path="url(#clipPath2)" font-family="sans-serif" stroke="none">1</text>
      <path fill="none" d="M1492.3142 413.7292 L1492.3142 663.207 L1603.025 663.207" clip-path="url(#clipPath2)"/>
      <text x="1501.4974" xml:space="preserve" y="655.5651" clip-path="url(#clipPath2)" font-family="sans-serif" stroke="none">screening</text>
      <text x="1498.359" xml:space="preserve" y="426.9713" clip-path="url(#clipPath2)" font-family="sans-serif" stroke="none">1</text>
      <text x="1577.7079" xml:space="preserve" y="657.0493" clip-path="url(#clipPath2)" font-family="sans-serif" stroke="none">0..*</text>
      <path fill="none" d="M1703.0029 662.2549 L1824.1266 660.113" clip-path="url(#clipPath2)"/>
      <text x="1706.8988" xml:space="preserve" y="676.8193" clip-path="url(#clipPath2)" font-family="sans-serif" stroke="none">0..*</text>
      <text x="1811.4144" xml:space="preserve" y="679.1859" clip-path="url(#clipPath2)" font-family="sans-serif" stroke="none">1</text>
      <text x="1742.3599" xml:space="preserve" y="655.392" clip-path="url(#clipPath2)" font-family="sans-serif" stroke="none">bookings</text>
      <path fill="none" d="M1581.8879 747.7848 L1581.8879 720 L1653.017 720 L1653.017 703.21" clip-path="url(#clipPath2)"/>
      <path fill="white" d="M1653.017 688.21 L1647.017 704.21 L1659.017 704.21 Z" clip-path="url(#clipPath2)" stroke="none"/>
      <path fill="none" d="M1653.017 688.21 L1647.017 704.21 L1659.017 704.21 Z" clip-path="url(#clipPath2)"/>
      <path fill="none" d="M1724.736 748.1981 L1724.736 720 L1653.017 720 L1653.017 703.21" clip-path="url(#clipPath2)"/>
      <path fill="white" d="M1653.017 688.21 L1647.017 704.21 L1659.017 704.21 Z" clip-path="url(#clipPath2)" stroke="none"/>
      <path fill="none" d="M1653.017 688.21 L1647.017 704.21 L1659.017 704.21 Z" clip-path="url(#clipPath2)"/>
    </g>
  </g>
</svg>
